<?xml version="1.0" standalone="no"?>
<!DOCTYPE svg PUBLIC "-//W3C//DTD SVG 20010904//EN"
 "http://www.w3.org/TR/2001/REC-SVG-20010904/DTD/svg10.dtd">
<svg version="1.0" xmlns="http://www.w3.org/2000/svg"
 width="512.000000pt" height="512.000000pt" viewBox="0 0 512.000000 512.000000"
 preserveAspectRatio="xMidYMid meet">
<metadata>
Created by potrace 1.16, written by Peter Selinger 2001-2019
</metadata>
<g transform="translate(0.000000,512.000000) scale(0.100000,-0.100000)"
fill="#000000" stroke="none">
<path d="M2255 5108 c-449 -50 -923 -247 -1288 -535 -103 -81 -316 -293 -402
-399 -234 -289 -407 -638 -495 -996 -57 -233 -65 -308 -65 -618 0 -310 8 -385
65 -618 67 -271 197 -569 346 -792 291 -436 716 -784 1181 -969 322 -128 605
-181 963 -181 423 0 786 84 1144 264 272 137 481 290 696 512 393 405 636 910
705 1464 20 163 20 477 0 640 -57 457 -245 907 -532 1273 -84 107 -355 372
-464 454 -362 271 -787 443 -1229 498 -137 17 -489 19 -625 3z m595 -314 c559
-74 1072 -355 1432 -784 347 -413 528 -910 528 -1450 0 -453 -124 -867 -369
-1236 -427 -643 -1119 -1016 -1885 -1015 -606 1 -1156 230 -1586 661 -433 432
-660 980 -660 1590 0 416 103 796 310 1143 464 780 1340 1208 2230 1091z"/>
<path d="M2270 4503 c-410 -62 -772 -241 -1069 -528 -173 -168 -292 -327 -395
-530 -142 -282 -206 -556 -206 -885 0 -329 64 -603 206 -885 160 -316 424
-605 719 -785 323 -197 653 -290 1035 -290 329 0 603 64 885 206 316 160 605
424 785 719 198 323 290 652 290 1035 0 328 -64 604 -206 885 -103 203 -222
362 -395 530 -303 293 -662 468 -1080 529 -135 20 -438 20 -569 -1z m505 -304
c536 -65 1026 -418 1271 -916 37 -75 104 -248 104 -268 0 -9 -211 -5 -289 5
-41 5 -97 20 -125 33 -28 13 -181 112 -341 219 -298 201 -352 233 -465 275
-226 85 -514 85 -740 0 -113 -42 -167 -74 -465 -275 -159 -107 -312 -206 -341
-219 -62 -28 -163 -42 -307 -43 l-107 0 6 28 c16 62 98 252 147 336 169 296
442 548 744 687 284 131 587 177 908 138z m-33 -918 c257 -66 473 -282 539
-539 23 -93 25 -259 4 -351 -63 -266 -293 -494 -560 -556 -88 -21 -242 -21
-331 0 -148 34 -301 130 -409 255 -56 67 -129 211 -149 300 -20 84 -20 256 -1
339 61 259 281 484 539 551 99 26 268 26 368 1z m-1227 -693 c0 -101 4 -203 8
-227 l8 -43 -33 7 c-18 3 -155 9 -304 12 l-272 5 -6 30 c-3 17 -6 99 -6 183
l0 153 228 4 c213 4 232 6 302 30 41 14 75 26 75 27 0 1 0 -81 0 -181z m2468
124 l227 -4 0 -153 c0 -84 -3 -166 -6 -183 l-6 -30 -272 -5 c-149 -3 -286 -9
-304 -12 l-33 -7 8 43 c4 24 8 125 8 225 l-1 180 76 -25 c70 -23 91 -25 303
-29z m-2524 -702 c151 -37 305 -134 404 -255 61 -76 131 -219 151 -312 19 -86
23 -443 5 -443 -17 0 -178 69 -238 102 -279 154 -507 377 -659 645 -52 92
-106 208 -117 256 l-7 27 188 0 c155 0 204 -4 273 -20z m2661 8 c0 -7 -22 -62
-48 -123 -139 -319 -392 -598 -699 -773 -92 -52 -208 -106 -255 -117 l-28 -7
0 188 c0 154 4 204 20 271 64 268 282 487 548 553 96 23 462 29 462 8z m-1560
-503 c80 0 167 3 194 7 l48 8 -7 -33 c-3 -17 -9 -154 -12 -304 l-5 -271 -34
-7 c-44 -8 -324 -8 -368 0 l-34 7 -5 271 c-3 150 -9 287 -12 304 l-7 33 48 -8
c27 -4 114 -7 194 -7z"/>
<path d="M2411 2991 c-120 -45 -207 -124 -264 -240 -31 -64 -32 -71 -32 -191
0 -120 1 -127 32 -191 58 -118 146 -197 269 -240 49 -17 77 -20 164 -17 95 3
112 7 175 38 92 44 171 123 216 215 33 68 34 73 34 195 0 122 -1 127 -34 195
-45 92 -124 171 -216 215 -65 32 -79 35 -180 37 -90 3 -120 0 -164 -16z m223
-310 c43 -29 66 -70 66 -121 0 -80 -60 -140 -140 -140 -27 0 -56 8 -74 19 -43
29 -66 70 -66 121 0 80 60 140 140 140 27 0 56 -8 74 -19z"/>
</g>
</svg>
